<?xml version="1.0" encoding="utf-8"?>
<!-- Generator: Adobe Illustrator 25.2.1, SVG Export Plug-In . SVG Version: 6.00 Build 0)  -->
<svg version="1.1" id="Calque_1" xmlns="http://www.w3.org/2000/svg" xmlns:xlink="http://www.w3.org/1999/xlink" x="0px" y="0px"
	 viewBox="0 0 120 120" style="enable-background:new 0 0 120 120;" xml:space="preserve">
<style type="text/css">
	.st0{fill:#141128;}
	.st1{fill:#D60B52;}
	.st2{fill:#FFFFFF;}
</style>
<g>
	<rect x="5.59" y="43.98" class="st0" width="107.8" height="33.8"/>
	<g>
		<polygon class="st1" points="50.21,65.06 51.98,65.06 51.98,61.73 50.21,61.69 		"/>
		<rect x="50.21" y="67.25" class="st1" width="1.78" height="1.8"/>
		<polygon class="st1" points="55.26,65.06 57.04,65.06 57.04,61.81 55.26,61.78 		"/>
		<rect x="55.26" y="67.25" class="st1" width="1.78" height="1.8"/>
		<path class="st1" d="M50.21,55.85c0.6-0.02,1.19-0.03,1.78-0.04v-0.33c-0.59,0.02-1.18,0.04-1.78,0.06V55.85z"/>
		<path class="st1" d="M50.21,59.29l1.78,0.03v-1.03c-0.6-0.02-1.19-0.03-1.78-0.05V59.29z"/>
		<path class="st1" d="M36.2,69.05h10.72v-1.8h-8.57C37.28,67.25,36.38,68.03,36.2,69.05z"/>
		<path class="st1" d="M38.36,72.52h4.1c0.79,0,1.48-0.42,1.86-1.06h-7.84C36.87,72.09,37.56,72.52,38.36,72.52z"/>
		<path class="st1" d="M25.57,58.87l21.35,0.36v-1.09c-10.18-0.28-17.78-0.52-17.78-0.52C27.8,57.62,26.55,58.09,25.57,58.87z"/>
		<path class="st1" d="M36.63,56.14c3.43-0.08,6.87-0.15,10.3-0.22v-0.27c-5.92,0.21-11.85,0.44-17.78,0.66
			C31.64,56.25,34.13,56.2,36.63,56.14z"/>
		<path class="st1" d="M23.43,63.33c0,3.16,2.56,5.72,5.71,5.72H34c0.2-2.23,2.08-3.99,4.36-3.99h8.57v-3.42l-23.1-0.39
			C23.56,61.9,23.43,62.6,23.43,63.33z"/>
		<path class="st1" d="M85,65.64c0-1.85-1.51-3.38-3.36-3.41l-0.3-0.01v6.84h0.24C83.47,69.05,85,67.52,85,65.64z"/>
		<path class="st1" d="M60.32,55.22v0.4c3.71-0.08,7.41-0.16,11.11-0.24c6.11-0.14,12.21-0.26,18.32-0.32
			c5.32-0.05,11.11,0.32,15.7-2.85c-4.97,2.66-10.71,2.26-16.16,2.33C79.63,54.66,69.98,54.93,60.32,55.22z"/>
		<polygon class="st1" points="60.32,65.06 74.13,65.06 74.13,62.1 60.32,61.86 		"/>
		<path class="st1" d="M75.22,67.26v1.79h1.93C76.98,68.1,76.19,67.36,75.22,67.26z"/>
		<path class="st1" d="M109.94,50.58c-0.25-1.42-0.52-3.08-1.36-4.29c0.67,1.31,0.83,2.99,0.98,4.43c0.21,1.85,0.28,3.72,0.28,5.59
			c0,1.87-0.07,3.75-0.26,5.61c-0.16,1.5-0.31,3.26-1.01,4.63c0.83-1.21,1.1-2.87,1.36-4.29c0.33-1.92,0.45-3.88,0.46-5.83
			C110.4,54.46,110.28,52.5,109.94,50.58z"/>
		<path class="st1" d="M79.35,69.05h0.9V62.2l-5.04-0.09v2.95C77.4,65.18,79.17,66.89,79.35,69.05z"/>
		<rect x="60.32" y="67.25" class="st1" width="13.8" height="1.8"/>
		<path class="st1" d="M55.26,55.74c0.6-0.02,1.19-0.03,1.78-0.04v-0.37c-0.59,0.02-1.19,0.03-1.78,0.05V55.74z"/>
		<path class="st1" d="M55.26,59.38l1.78,0.03v-0.98c-0.6-0.02-1.19-0.03-1.78-0.05V59.38z"/>
		<path class="st1" d="M59.98,0.7C27.31,0.7,0.83,27.18,0.83,59.85S27.31,119,59.98,119s59.15-26.48,59.15-59.15
			S92.65,0.7,59.98,0.7z M108.58,67.83c-0.77,0-1.47-1.43-1.95-3.7c-0.22-1.06-0.86-2-1.77-2.59c-2.08-1.35-5.4-2.38-10.72-2.38
			c-6.88,0-20.69-0.31-33.81-0.65v0.95l21.36,0.36c3.16,0.05,5.73,2.66,5.73,5.82c0,3.21-2.61,5.82-5.82,5.82H60.32v1.35
			c0,0.44-0.36,0.8-0.8,0.8h-1.68c-0.44,0-0.8-0.36-0.8-0.8v-1.35h-1.78v1.35c0,0.44-0.36,0.8-0.8,0.8h-1.68
			c-0.44,0-0.8-0.36-0.8-0.8v-1.35h-1.78v1.35c0,0.44-0.36,0.8-0.8,0.8h-1.68c-0.44,0-0.8-0.36-0.8-0.8v-1.35h-0.24
			c-0.5,1.86-2.21,3.24-4.23,3.24h-4.1c-2.02,0-3.72-1.38-4.23-3.24h-4.99c-4.48,0-8.12-3.64-8.12-8.13c0-0.73,0.1-1.45,0.28-2.13
			l-7.68-0.13c-0.13,0.16-0.32,0.27-0.54,0.27c-0.14,0-0.26-0.05-0.37-0.12l-2.57,1.11c-0.02,0.38-0.32,0.68-0.71,0.68
			c-0.39,0-0.71-0.32-0.71-0.71v-4.88c0-0.39,0.32-0.71,0.71-0.71c0.38,0,0.69,0.3,0.7,0.68l2.59,1.11c0.1-0.07,0.22-0.11,0.36-0.11
			c0.22,0,0.42,0.11,0.55,0.28l8.76,0.15c1.46-2.18,3.94-3.61,6.75-3.61c0,0,7.61-0.24,17.78-0.52v-1c0-0.1,0.08-0.19,0.19-0.19
			h0.98l0.01-1.37c-0.61-0.14-1.06-0.56-1.05-1.05c0-0.61,0.68-0.71,1.51-0.7c0.83,0.01,1.5,0.11,1.49,0.72
			c0,0.5-0.46,0.91-1.08,1.04l-0.01,1.36h1.03c0.11,0,0.2,0.09,0.2,0.19v0.9c0.59-0.02,1.18-0.03,1.78-0.05V53.7
			c0-0.1,0.08-0.19,0.19-0.19h0.98l0.01-1.37c-0.61-0.14-1.06-0.56-1.05-1.05c0-0.61,0.68-0.71,1.51-0.7
			c0.83,0.01,1.5,0.11,1.49,0.72c0,0.5-0.46,0.91-1.08,1.04l-0.01,1.36h1.03c0.11,0,0.2,0.09,0.2,0.19v0.76
			c0.59-0.02,1.18-0.03,1.78-0.05V53.7c0-0.1,0.08-0.19,0.19-0.19h0.98l0.01-1.37c-0.61-0.14-1.06-0.56-1.05-1.05
			c0-0.61,0.68-0.71,1.51-0.7c0.83,0.01,1.5,0.11,1.49,0.72c0,0.5-0.46,0.91-1.08,1.04l-0.01,1.36h1.03c0.11,0,0.2,0.09,0.2,0.19
			v0.62c13.12-0.34,26.93-0.65,33.81-0.65c5.32,0,8.65-1.03,10.72-2.38c0.91-0.59,1.55-1.53,1.77-2.59c0.48-2.27,1.18-3.7,1.95-3.7
			c1.46,0,2.65,5.11,2.65,11.42C111.22,62.72,110.04,67.83,108.58,67.83z"/>
	</g>
	<g>
		<path class="st2" d="M11.65,33.9c0.07-0.65,0.24-1.19,0.53-1.63c0.29-0.44,0.64-0.78,1.07-1.04c0.42-0.26,0.9-0.44,1.41-0.55
			s1.04-0.16,1.58-0.16c0.44,0,0.86,0.02,1.28,0.05c0.42,0.04,0.8,0.08,1.15,0.13s0.66,0.1,0.91,0.14c0.26,0.05,0.44,0.08,0.56,0.11
			c0.07,0.02,0.11,0.05,0.11,0.1c0,0.01-0.01,0.05-0.02,0.11l-0.13,0.64c-0.01,0.04-0.03,0.07-0.05,0.08
			c-0.02,0.01-0.04,0.01-0.06,0.01c-0.26,0-0.49,0.04-0.68,0.13s-0.35,0.21-0.47,0.38c-0.13,0.16-0.22,0.35-0.29,0.57
			s-0.11,0.46-0.13,0.72l-0.54,6.51c-0.05,0.53-0.18,1.02-0.4,1.49s-0.53,0.87-0.92,1.22c-0.39,0.35-0.88,0.62-1.45,0.82
			c-0.57,0.2-1.23,0.3-1.97,0.3c-0.5,0-0.97-0.02-1.43-0.07s-0.88-0.1-1.25-0.17c-0.38-0.07-0.7-0.13-0.97-0.19
			c-0.27-0.06-0.47-0.11-0.59-0.14c-0.07-0.02-0.11-0.05-0.11-0.1c0-0.01,0.01-0.04,0.02-0.1l0.15-0.68
			c0.01-0.04,0.03-0.07,0.05-0.08c0.02-0.01,0.04-0.01,0.06-0.01c0.26,0,0.51-0.04,0.73-0.12c0.22-0.08,0.42-0.21,0.59-0.39
			c0.17-0.18,0.31-0.41,0.42-0.7c0.11-0.29,0.19-0.64,0.23-1.06L11.65,33.9z"/>
		<path class="st2" d="M27.19,41.49c0,0.34,0.06,0.59,0.17,0.75c0.11,0.16,0.3,0.24,0.57,0.24c0.14,0,0.28-0.03,0.43-0.09
			c0.15-0.06,0.27-0.12,0.35-0.17v-7.29c0-0.1,0.02-0.2,0.07-0.29c0.04-0.09,0.14-0.13,0.3-0.13h0.57c0.05,0,0.11,0,0.16,0.01
			c0.05,0.01,0.1,0.02,0.14,0.05c0.04,0.03,0.07,0.07,0.1,0.13s0.04,0.14,0.04,0.24v8.32c0,0.1-0.01,0.18-0.04,0.24
			c-0.03,0.06-0.06,0.1-0.1,0.13c-0.04,0.03-0.09,0.04-0.14,0.05s-0.11,0.01-0.16,0.01h-0.57c-0.16,0-0.25-0.04-0.3-0.13
			c-0.04-0.09-0.07-0.23-0.07-0.43c-0.13,0.05-0.31,0.11-0.55,0.2c-0.24,0.08-0.53,0.17-0.89,0.25c-0.36,0.08-0.78,0.15-1.27,0.21
			c-0.49,0.06-1.04,0.09-1.67,0.09c-0.64,0-1.2-0.05-1.67-0.16s-0.86-0.28-1.16-0.52c-0.31-0.24-0.54-0.56-0.68-0.94
			c-0.15-0.39-0.22-0.86-0.22-1.43v-5.04c0-0.2,0.02-0.38,0.05-0.54c0.04-0.16,0.1-0.29,0.21-0.39s0.24-0.18,0.42-0.23
			c0.18-0.05,0.41-0.08,0.7-0.08h3.92c0.35,0,0.61,0.05,0.79,0.15c0.18,0.1,0.31,0.23,0.38,0.38c0.08,0.15,0.12,0.31,0.12,0.48
			c0,0.17,0,0.33,0,0.47V41.49z"/>
		<path class="st2" d="M31.74,35.75c0-0.2,0.02-0.38,0.05-0.54c0.04-0.16,0.1-0.29,0.21-0.39s0.24-0.18,0.42-0.23
			c0.18-0.05,0.41-0.08,0.7-0.08h3.66c0.27,0,0.5,0.03,0.68,0.08s0.32,0.15,0.4,0.28c0.08-0.06,0.17-0.12,0.29-0.18
			c0.11-0.06,0.24-0.12,0.37-0.17s0.28-0.1,0.43-0.13c0.15-0.03,0.31-0.05,0.47-0.05c0.55,0,0.98,0.18,1.3,0.55
			c0.08-0.06,0.17-0.12,0.27-0.18c0.12-0.07,0.25-0.13,0.39-0.19s0.3-0.1,0.46-0.13c0.16-0.03,0.32-0.05,0.48-0.05
			c0.57,0,1.02,0.2,1.34,0.59c0.32,0.39,0.48,0.97,0.48,1.74v6.6c0,0.1-0.01,0.18-0.04,0.24c-0.03,0.06-0.06,0.1-0.1,0.13
			c-0.04,0.03-0.09,0.04-0.14,0.05s-0.11,0.01-0.16,0.01h-0.56c-0.16,0-0.26-0.04-0.3-0.13c-0.04-0.09-0.07-0.19-0.07-0.29v-6.69
			c0-0.34-0.06-0.6-0.18-0.78c-0.12-0.18-0.32-0.27-0.59-0.27c-0.07,0-0.15,0.01-0.22,0.04s-0.16,0.06-0.23,0.1
			c-0.08,0.04-0.15,0.09-0.21,0.13c-0.05,0.04-0.1,0.08-0.14,0.12c0.04,0.23,0.06,0.47,0.06,0.74v6.6c0,0.1-0.01,0.18-0.04,0.24
			c-0.03,0.06-0.06,0.1-0.1,0.13c-0.04,0.03-0.09,0.04-0.14,0.05s-0.11,0.01-0.16,0.01h-0.57c-0.16,0-0.25-0.04-0.3-0.13
			c-0.04-0.09-0.07-0.19-0.07-0.29v-6.69c0-0.34-0.06-0.6-0.18-0.78c-0.12-0.18-0.32-0.27-0.59-0.27c-0.14,0-0.28,0.04-0.42,0.11
			s-0.25,0.15-0.34,0.24v6.55c0,0.21-0.02,0.39-0.05,0.55c-0.04,0.16-0.1,0.29-0.21,0.39c-0.1,0.1-0.24,0.18-0.42,0.24
			c-0.18,0.05-0.41,0.08-0.7,0.08h-3.84c-0.29,0-0.52-0.03-0.7-0.08c-0.18-0.05-0.32-0.13-0.42-0.23c-0.1-0.1-0.17-0.23-0.21-0.38
			c-0.04-0.15-0.05-0.34-0.05-0.55V35.75z"/>
		<path class="st2" d="M45.78,35.75c0-0.2,0.02-0.38,0.05-0.54c0.04-0.16,0.1-0.29,0.21-0.39s0.24-0.18,0.42-0.23
			c0.18-0.05,0.41-0.08,0.7-0.08h3.66c0.27,0,0.5,0.03,0.68,0.08s0.32,0.15,0.4,0.28c0.08-0.06,0.17-0.12,0.29-0.18
			c0.11-0.06,0.24-0.12,0.37-0.17s0.28-0.1,0.43-0.13c0.15-0.03,0.31-0.05,0.47-0.05c0.55,0,0.98,0.18,1.3,0.55
			c0.08-0.06,0.17-0.12,0.27-0.18c0.12-0.07,0.25-0.13,0.39-0.19s0.3-0.1,0.46-0.13c0.16-0.03,0.32-0.05,0.48-0.05
			c0.57,0,1.02,0.2,1.34,0.59c0.32,0.39,0.48,0.97,0.48,1.74v6.6c0,0.1-0.01,0.18-0.04,0.24c-0.03,0.06-0.06,0.1-0.1,0.13
			c-0.04,0.03-0.09,0.04-0.14,0.05s-0.11,0.01-0.16,0.01h-0.56c-0.16,0-0.26-0.04-0.3-0.13c-0.04-0.09-0.07-0.19-0.07-0.29v-6.69
			c0-0.34-0.06-0.6-0.18-0.78c-0.12-0.18-0.32-0.27-0.59-0.27c-0.07,0-0.15,0.01-0.22,0.04s-0.16,0.06-0.23,0.1
			c-0.08,0.04-0.15,0.09-0.21,0.13c-0.05,0.04-0.1,0.08-0.14,0.12c0.04,0.23,0.06,0.47,0.06,0.74v6.6c0,0.1-0.01,0.18-0.04,0.24
			c-0.03,0.06-0.06,0.1-0.1,0.13c-0.04,0.03-0.09,0.04-0.14,0.05s-0.11,0.01-0.16,0.01h-0.57c-0.16,0-0.25-0.04-0.3-0.13
			c-0.04-0.09-0.07-0.19-0.07-0.29v-6.69c0-0.34-0.06-0.6-0.18-0.78c-0.12-0.18-0.32-0.27-0.59-0.27c-0.14,0-0.28,0.04-0.42,0.11
			s-0.25,0.15-0.34,0.24v6.55c0,0.21-0.02,0.39-0.05,0.55c-0.04,0.16-0.1,0.29-0.21,0.39c-0.1,0.1-0.24,0.18-0.42,0.24
			c-0.18,0.05-0.41,0.08-0.7,0.08h-3.84c-0.29,0-0.52-0.03-0.7-0.08c-0.18-0.05-0.32-0.13-0.42-0.23c-0.1-0.1-0.17-0.23-0.21-0.38
			c-0.04-0.15-0.05-0.34-0.05-0.55V35.75z"/>
		<path class="st2" d="M67.93,42.19c0.16,0,0.31-0.02,0.44-0.07c0.13-0.04,0.25-0.09,0.35-0.15c0.11-0.05,0.19-0.1,0.26-0.15
			c0.07-0.04,0.12-0.07,0.16-0.07c0.05,0,0.09,0.01,0.11,0.03c0.02,0.02,0.04,0.05,0.08,0.1l0.31,0.48
			c0.03,0.05,0.04,0.09,0.04,0.12c0,0.04-0.01,0.07-0.04,0.1c-0.03,0.02-0.05,0.04-0.07,0.06c-0.2,0.14-0.44,0.29-0.72,0.44
			s-0.62,0.3-1,0.43s-0.81,0.24-1.29,0.33c-0.48,0.09-1,0.13-1.57,0.13c-0.45,0-0.9-0.04-1.34-0.11c-0.45-0.07-0.88-0.19-1.28-0.34
			c-0.41-0.16-0.79-0.36-1.14-0.61c-0.35-0.25-0.66-0.56-0.92-0.92c-0.26-0.36-0.46-0.79-0.61-1.27c-0.15-0.48-0.22-1.03-0.22-1.65
			c0-0.61,0.07-1.15,0.22-1.63c0.15-0.48,0.35-0.9,0.61-1.27c0.26-0.36,0.57-0.67,0.92-0.93c0.35-0.25,0.73-0.46,1.14-0.62
			c0.41-0.16,0.84-0.27,1.28-0.34c0.45-0.07,0.9-0.11,1.34-0.11c0.75,0,1.44,0.08,2.08,0.25c0.64,0.17,1.2,0.44,1.67,0.82
			c0.47,0.38,0.84,0.88,1.11,1.5c0.27,0.62,0.4,1.38,0.4,2.28v0.5c0,0.11-0.03,0.19-0.08,0.25c-0.05,0.06-0.14,0.09-0.27,0.09h-3.71
			c0.05,0.44,0.13,0.81,0.26,1.11s0.26,0.53,0.42,0.71c0.16,0.18,0.33,0.3,0.52,0.37S67.76,42.19,67.93,42.19z M68.99,38.79
			c0-0.48-0.04-0.87-0.11-1.19c-0.07-0.31-0.17-0.56-0.3-0.75s-0.27-0.32-0.44-0.4c-0.17-0.08-0.35-0.12-0.53-0.12
			c-0.14,0-0.29,0.03-0.45,0.08c-0.16,0.05-0.31,0.17-0.45,0.34c-0.14,0.17-0.26,0.42-0.36,0.74c-0.1,0.32-0.16,0.75-0.17,1.29
			H68.99z"/>
		<path class="st2" d="M71.56,35.75c0-0.2,0.02-0.38,0.05-0.54c0.04-0.16,0.1-0.29,0.21-0.39s0.24-0.18,0.42-0.23
			c0.18-0.05,0.41-0.08,0.7-0.08h3.92c0.27,0,0.5,0.03,0.66,0.08s0.3,0.13,0.39,0.24c0.09,0.11,0.16,0.24,0.19,0.4
			c0.03,0.16,0.05,0.35,0.05,0.56v0.66l1.99-1.93c0.13-0.13,0.25-0.19,0.37-0.19c0.07,0,0.12,0.01,0.17,0.04s0.09,0.06,0.13,0.09
			l0.4,0.42c0.09,0.09,0.13,0.19,0.13,0.3c0,0.07-0.02,0.13-0.06,0.2c-0.04,0.07-0.1,0.14-0.18,0.2l-2.95,2.29v4.53
			c0,0.21-0.01,0.39-0.04,0.55c-0.03,0.16-0.09,0.29-0.2,0.39c-0.1,0.1-0.25,0.18-0.44,0.24c-0.19,0.05-0.45,0.08-0.78,0.08h-3.76
			c-0.29,0-0.52-0.03-0.7-0.08c-0.18-0.05-0.32-0.13-0.42-0.23c-0.1-0.1-0.17-0.23-0.21-0.38c-0.04-0.15-0.05-0.34-0.05-0.55V35.75z
			"/>
	</g>
	<g>
		<path class="st2" d="M57.22,87.76c0-0.08,0.01-0.13,0.04-0.15c0.02-0.02,0.05-0.03,0.09-0.03c0.07,0,0.19,0.03,0.34,0.08
			c0.16,0.05,0.37,0.08,0.63,0.08c0.75,0,1.12-0.46,1.12-1.39v-8.98c0-0.14,0.01-0.28,0.03-0.42s0.07-0.28,0.16-0.4
			c0.09-0.12,0.22-0.22,0.39-0.3c0.17-0.08,0.41-0.12,0.73-0.12h3.99c0.29,0,0.52,0.03,0.7,0.08c0.18,0.05,0.32,0.13,0.42,0.24
			s0.17,0.23,0.21,0.39c0.04,0.16,0.05,0.34,0.05,0.55v7.1c0,0.72-0.08,1.33-0.24,1.86c-0.16,0.52-0.38,0.96-0.65,1.32
			c-0.27,0.36-0.59,0.65-0.94,0.87s-0.73,0.39-1.12,0.51s-0.78,0.2-1.18,0.24s-0.77,0.06-1.12,0.06c-0.79,0-1.48-0.05-2.05-0.16
			c-0.58-0.1-1.05-0.25-1.43-0.44c-0.03-0.01-0.06-0.04-0.1-0.08c-0.04-0.04-0.06-0.11-0.06-0.21V87.76z"/>
		<path class="st2" d="M71.51,88.99c-0.32,0-0.65-0.02-0.97-0.06s-0.64-0.11-0.93-0.2c-0.3-0.09-0.57-0.21-0.83-0.36
			c-0.26-0.15-0.48-0.33-0.67-0.55c-0.19-0.22-0.34-0.48-0.44-0.78c-0.11-0.3-0.16-0.64-0.16-1.03c0-0.52,0.1-0.96,0.3-1.33
			s0.46-0.68,0.79-0.92c0.33-0.24,0.71-0.43,1.14-0.56c0.43-0.13,0.87-0.21,1.33-0.25v-0.62c0-0.23-0.03-0.42-0.09-0.56
			c-0.06-0.14-0.14-0.24-0.23-0.31s-0.19-0.11-0.3-0.13c-0.11-0.02-0.22-0.03-0.32-0.03c-0.12,0-0.25,0.02-0.38,0.05
			c-0.13,0.04-0.26,0.08-0.39,0.13c-0.13,0.05-0.25,0.11-0.36,0.17s-0.21,0.11-0.29,0.16c-0.04,0.02-0.07,0.04-0.1,0.06
			c-0.03,0.02-0.06,0.03-0.09,0.03c-0.05,0-0.1-0.04-0.15-0.12l-0.3-0.48c-0.03-0.04-0.04-0.09-0.04-0.13s0.02-0.09,0.06-0.12
			c0.04-0.04,0.08-0.07,0.11-0.09c0.2-0.14,0.45-0.28,0.75-0.42c0.3-0.14,0.65-0.27,1.03-0.38c0.38-0.11,0.79-0.21,1.23-0.28
			s0.9-0.11,1.37-0.11c0.45,0,0.88,0.01,1.31,0.04c0.43,0.03,0.83,0.09,1.21,0.19s0.73,0.24,1.04,0.42
			c0.31,0.18,0.58,0.42,0.81,0.72c0.23,0.3,0.41,0.67,0.53,1.1c0.12,0.44,0.19,0.96,0.19,1.57v3.99c0,0.2-0.02,0.37-0.05,0.52
			c-0.04,0.15-0.1,0.28-0.21,0.38c-0.1,0.1-0.24,0.18-0.42,0.23c-0.18,0.05-0.41,0.08-0.7,0.08H71.51z M71.07,84.06
			c-0.43,0-0.79,0.05-1.08,0.16c-0.29,0.11-0.53,0.25-0.71,0.43c-0.18,0.18-0.31,0.39-0.38,0.62s-0.12,0.48-0.12,0.73
			s0.04,0.49,0.12,0.71c0.08,0.22,0.21,0.42,0.38,0.59c0.18,0.17,0.42,0.3,0.71,0.39c0.29,0.1,0.65,0.14,1.08,0.14V84.06z"/>
		<path class="st2" d="M79.08,80.12c0-0.1,0.02-0.18,0.06-0.22s0.13-0.07,0.27-0.07h8.65c0.23,0,0.38,0.03,0.47,0.08
			c0.09,0.05,0.13,0.15,0.13,0.29c0,0.17-0.05,0.35-0.16,0.55l-3.57,6.99c0.55-0.02,1.06-0.04,1.52-0.05
			c0.2-0.01,0.39-0.01,0.59-0.02c0.19-0.01,0.37-0.02,0.54-0.02s0.31-0.01,0.43-0.01s0.2,0,0.25,0c0.1,0,0.2,0.02,0.29,0.06
			s0.13,0.12,0.13,0.24v0.64c0,0.11-0.04,0.21-0.1,0.3s-0.2,0.14-0.41,0.14h-9c-0.17,0-0.3-0.04-0.38-0.11
			c-0.08-0.07-0.13-0.16-0.13-0.25c0-0.12,0.02-0.24,0.07-0.35s0.12-0.27,0.22-0.46l3.47-6.74c-0.47,0.02-0.9,0.04-1.3,0.06
			c-0.17,0.01-0.35,0.02-0.52,0.03s-0.34,0.01-0.5,0.02c-0.16,0.01-0.3,0.01-0.43,0.01c-0.12,0-0.22,0-0.29,0
			c-0.07,0-0.14-0.02-0.21-0.05c-0.07-0.03-0.1-0.11-0.1-0.23V80.12z"/>
		<path class="st2" d="M89.38,80.12c0-0.1,0.02-0.18,0.06-0.22s0.13-0.07,0.27-0.07h8.65c0.23,0,0.38,0.03,0.47,0.08
			c0.09,0.05,0.13,0.15,0.13,0.29c0,0.17-0.05,0.35-0.16,0.55l-3.57,6.99c0.55-0.02,1.06-0.04,1.52-0.05
			c0.2-0.01,0.39-0.01,0.59-0.02c0.19-0.01,0.37-0.02,0.54-0.02s0.31-0.01,0.43-0.01s0.2,0,0.25,0c0.1,0,0.2,0.02,0.29,0.06
			s0.13,0.12,0.13,0.24v0.64c0,0.11-0.04,0.21-0.1,0.3s-0.2,0.14-0.41,0.14h-9c-0.17,0-0.3-0.04-0.38-0.11
			c-0.08-0.07-0.13-0.16-0.13-0.25c0-0.12,0.02-0.24,0.07-0.35s0.12-0.27,0.22-0.46l3.47-6.74c-0.47,0.02-0.9,0.04-1.3,0.06
			c-0.17,0.01-0.35,0.02-0.52,0.03s-0.34,0.01-0.5,0.02c-0.16,0.01-0.3,0.01-0.43,0.01c-0.12,0-0.22,0-0.29,0
			c-0.07,0-0.14-0.02-0.21-0.05c-0.07-0.03-0.1-0.11-0.1-0.23V80.12z"/>
	</g>
</g>
</svg>
