<svg id="Calque_1" data-name="Calque 1" xmlns="http://www.w3.org/2000/svg" viewBox="0 0 116.74 116.74"><defs><style>.cls-1{fill:#fff;}.cls-2{fill:#141128;}.cls-3,.cls-5{font-size:18.09px;fill:#d60b53;font-family:Fascinate-Regular, Fascinate;}.cls-3{letter-spacing:-0.03em;}.cls-4{letter-spacing:0em;}</style></defs><rect class="cls-1" x="3.13" y="42.27" width="109.83" height="30.76"/><polygon class="cls-2" points="48.73 63.51 50.48 63.51 50.48 60.22 48.73 60.19 48.73 63.51"/><rect class="cls-2" x="48.73" y="65.67" width="1.75" height="1.78"/><polygon class="cls-2" points="53.72 63.51 55.47 63.51 55.47 60.3 53.72 60.27 53.72 63.51"/><rect class="cls-2" x="53.72" y="65.67" width="1.75" height="1.78"/><path class="cls-2" d="M50.33,55.9l1.76,0v-.33l-1.76.06Z" transform="translate(-1.61 -1.48)"/><path class="cls-2" d="M50.33,59.29l1.76,0v-1l-1.76,0Z" transform="translate(-1.61 -1.48)"/><path class="cls-2" d="M36.52,68.93H47.1V67.15H38.64A2.15,2.15,0,0,0,36.52,68.93Z" transform="translate(-1.61 -1.48)"/><path class="cls-2" d="M38.64,72.35h4a2.16,2.16,0,0,0,1.84-1H36.8A2.15,2.15,0,0,0,38.64,72.35Z" transform="translate(-1.61 -1.48)"/><path class="cls-2" d="M26,58.88l21.07.36V58.16c-10.05-.28-17.55-.51-17.55-.51A5.62,5.62,0,0,0,26,58.88Z" transform="translate(-1.61 -1.48)"/><path class="cls-2" d="M36.94,56.19,47.1,56V55.7c-5.85.2-11.7.43-17.55.65Z" transform="translate(-1.61 -1.48)"/><path class="cls-2" d="M23.91,63.29a5.65,5.65,0,0,0,5.64,5.64h4.79A4.33,4.33,0,0,1,38.64,65H47.1V61.61l-22.8-.38A5.43,5.43,0,0,0,23.91,63.29Z" transform="translate(-1.61 -1.48)"/><path class="cls-2" d="M84.67,65.56a3.39,3.39,0,0,0-3.31-3.37h-.3v6.74h.24A3.37,3.37,0,0,0,84.67,65.56Z" transform="translate(-1.61 -1.48)"/><path class="cls-2" d="M60.32,55.28v.4l11-.24c6-.13,12-.26,18.08-.32,5.25,0,11,.32,15.49-2.81C100,54.93,94.28,54.53,88.9,54.6,79.37,54.73,69.85,55,60.32,55.28Z" transform="translate(-1.61 -1.48)"/><polygon class="cls-2" points="58.71 63.51 72.33 63.51 72.33 60.59 58.71 60.35 58.71 63.51"/><path class="cls-2" d="M75,67.16v1.77h1.9A2.17,2.17,0,0,0,75,67.16Z" transform="translate(-1.61 -1.48)"/><path class="cls-2" d="M109.28,50.7a11,11,0,0,0-1.34-4.23,12.52,12.52,0,0,1,1,4.37,48.3,48.3,0,0,1,.28,5.51,50.94,50.94,0,0,1-.26,5.53,13.18,13.18,0,0,1-1,4.57,10.93,10.93,0,0,0,1.34-4.23,37.09,37.09,0,0,0,0-11.52Z" transform="translate(-1.61 -1.48)"/><path class="cls-2" d="M79.09,68.93H80V62.17l-5-.09V65A4.31,4.31,0,0,1,79.09,68.93Z" transform="translate(-1.61 -1.48)"/><rect class="cls-2" x="58.71" y="65.67" width="13.62" height="1.78"/><path class="cls-2" d="M55.33,55.79l1.75,0v-.37l-1.75,0Z" transform="translate(-1.61 -1.48)"/><path class="cls-2" d="M55.33,59.38l1.75,0v-1l-1.75,0Z" transform="translate(-1.61 -1.48)"/><path class="cls-2" d="M60,1.48a58.37,58.37,0,1,0,58.36,58.37A58.37,58.37,0,0,0,60,1.48Zm48,66.25c-.76,0-1.45-1.41-1.92-3.66a4,4,0,0,0-1.75-2.55c-2.05-1.33-5.33-2.35-10.58-2.35-6.79,0-20.41-.3-33.36-.64v.93l21.07.36a5.75,5.75,0,0,1-.09,11.49h-21v1.33a.8.8,0,0,1-.8.79H57.87a.79.79,0,0,1-.79-.79V71.31H55.33v1.33a.8.8,0,0,1-.8.79H52.88a.79.79,0,0,1-.79-.79V71.31H50.33v1.33a.79.79,0,0,1-.79.79H47.88a.79.79,0,0,1-.78-.79V71.31h-.24a4.33,4.33,0,0,1-4.17,3.19h-4a4.33,4.33,0,0,1-4.17-3.19H29.55a8,8,0,0,1-8-8,7.66,7.66,0,0,1,.28-2.1l-7.58-.13a.69.69,0,0,1-.53.27.68.68,0,0,1-.37-.12L10.8,62.3a.7.7,0,0,1-1.39,0V57.46a.7.7,0,0,1,.7-.7.69.69,0,0,1,.69.67l2.55,1.1a.62.62,0,0,1,.36-.12.71.71,0,0,1,.54.28l8.64.14a8,8,0,0,1,6.66-3.56s7.5-.23,17.55-.51v-1a.19.19,0,0,1,.19-.19h1V52.24a1.18,1.18,0,0,1-1-1c0-.6.67-.71,1.49-.7s1.48.12,1.47.72-.45.89-1.06,1v1.34h1a.19.19,0,0,1,.19.19v.89l1.76-.05v-.84a.19.19,0,0,1,.19-.19h1V52.24a1.18,1.18,0,0,1-1-1c0-.6.67-.71,1.49-.7s1.48.12,1.48.72-.46.89-1.07,1v1.34h1a.2.2,0,0,1,.2.19v.75l1.75-.05v-.7a.19.19,0,0,1,.19-.19h1V52.24a1.19,1.19,0,0,1-1-1c0-.6.67-.71,1.49-.7s1.48.12,1.48.72-.46.89-1.07,1v1.34h1a.2.2,0,0,1,.2.19v.61c12.95-.34,26.57-.64,33.36-.64,5.25,0,8.53-1,10.58-2.35A4,4,0,0,0,106,48.85c.47-2.25,1.16-3.66,1.92-3.66,1.44,0,2.61,5.05,2.61,11.27S109.37,67.73,107.93,67.73Z" transform="translate(-1.61 -1.48)"/><text class="cls-3" transform="translate(7.8 42.4)">S<tspan class="cls-4" x="10.89" y="0">ummer</tspan></text><text class="cls-5" transform="translate(55.47 87.12)">Jazz</text></svg>