<svg id="Calque_1" data-name="Calque 1" xmlns="http://www.w3.org/2000/svg" viewBox="0 0 28.35 28.35"><defs><style>.cls-1{fill:#d60b52;}.cls-2{fill:#1d1d1b;}</style></defs><circle class="cls-1" cx="14.17" cy="14.17" r="14.17"/><path class="cls-2" d="M20.21,21.88h-12V19.37L12.55,15c1.27-1.3,2.1-2.2,2.49-2.71a6,6,0,0,0,.84-1.39,3.44,3.44,0,0,0,.26-1.34,2,2,0,0,0-.57-1.53,2.15,2.15,0,0,0-1.51-.5A4.4,4.4,0,0,0,12.13,8a10.47,10.47,0,0,0-2,1.3L8.21,7a13.13,13.13,0,0,1,2.1-1.52,7.8,7.8,0,0,1,1.81-.68,9.27,9.27,0,0,1,2.2-.24,6.5,6.5,0,0,1,2.83.58,4.49,4.49,0,0,1,1.9,1.64,4.3,4.3,0,0,1,.68,2.41,6,6,0,0,1-.41,2.22A8.55,8.55,0,0,1,18,13.51,30.24,30.24,0,0,1,15,16.61l-2.2,2.07v.16h7.45Z"/></svg>